<?xml version="1.0" encoding="UTF-8"?><svg id="_лой_2" xmlns="http://www.w3.org/2000/svg" xmlns:xlink="http://www.w3.org/1999/xlink" viewBox="0 0 36.84 6.05"><defs><style>.cls-1{fill:url(#linear-gradient);}.cls-2{fill:#fff;}.cls-3{fill:#fffdfd;}</style><linearGradient id="linear-gradient" x1="-.04" y1="3.02" x2="4.73" y2="3.02" gradientTransform="matrix(1, 0, 0, 1, 0, 0)" gradientUnits="userSpaceOnUse"><stop offset="0" stop-color="#fff"/><stop offset=".23" stop-color="#fdf8f8"/><stop offset=".55" stop-color="#f8e6e6"/><stop offset=".92" stop-color="#f1c9c9"/><stop offset="1" stop-color="#efc2c2"/></linearGradient></defs><g id="Layer_1"><g><g><polygon class="cls-2" points="3.92 .36 1.98 1.45 1.25 1.86 1.23 1.86 1.23 4.19 1.25 4.19 1.98 4.6 3.92 5.69 3.92 .36"/><path class="cls-1" d="M1.02,1.86H.2c-.11,0-.2,.07-.2,.16v2c0,.09,.09,.16,.2,.16h.83V1.86Z"/><path class="cls-2" d="M4.53,.02l-.4,.22V5.8l.4,.22c.11,.06,.25-.01,.25-.13V.16c0-.12-.14-.2-.25-.13Z"/></g><rect class="cls-2" x="7.27" width=".72" height="6.05"/><rect class="cls-2" x="8.87" width=".72" height="6.05"/><rect class="cls-2" x="10.47" width=".72" height="6.05"/><rect class="cls-2" x="12.08" width=".72" height="6.05"/><rect class="cls-2" x="13.68" width=".72" height="6.05"/><rect class="cls-2" x="15.28" width=".72" height="6.05"/><rect class="cls-2" x="16.88" width=".72" height="6.05"/><rect class="cls-2" x="18.49" width=".72" height="6.05"/><rect class="cls-2" x="20.09" width=".72" height="6.05"/><rect class="cls-2" x="21.69" width=".72" height="6.05"/><rect class="cls-2" x="23.29" width=".72" height="6.05"/><rect class="cls-2" x="24.9" width=".72" height="6.05"/><rect class="cls-2" x="26.5" width=".72" height="6.05"/><rect class="cls-3" x="28.1" width=".72" height="6.05"/><rect class="cls-3" x="29.71" width=".72" height="6.05"/><rect class="cls-3" x="31.31" width=".72" height="6.05"/><rect class="cls-3" x="32.91" width=".72" height="6.05"/><rect class="cls-3" x="34.51" width=".72" height="6.05"/><rect class="cls-2" x="36.12" width=".72" height="6.05"/><rect class="cls-2" x="5.66" width=".72" height="6.05"/></g></g></svg>